<svg xmlns="http://www.w3.org/2000/svg" width="20.064" height="20.064" viewBox="0 0 20.064 20.064"><title>
    Wikimedia Commons logo
  </title><g transform="translate(2.742)"><path fill="#069" d="M10.4 6.18a3.68 3.68 0 0 1-2.18-2.55c.09.09 1.82.91 1.82.91L7.31 0 4.58 4.55l1.82-.91a5.1 5.1 0 0 0 .55 1.91 5.13 5.13 0 0 0 2 2 9 9 0 0 1 2 1.18l-.64.63-.45-.45-.26 1.54 1.54-.26-.45-.45.62-.65a5.7 5.7 0 0 1 1.45 3.45h-.91v-.73l-1.26.91 1.26.91v-.73h.91a5.2 5.2 0 0 1-1.45 3.46l-.64-.64.45-.45L9.59 15l.26 1.54.45-.45.64.64a5.7 5.7 0 0 1-3.45 1.45v-.91h.73L7.31 16l-.91 1.27h.73v.91a5.2 5.2 0 0 1-3.45-1.45l.63-.64.45.45.27-1.54-1.54.26.45.45-.63.65a5.7 5.7 0 0 1-1.45-3.45h.91v.73l1.26-.91-1.26-.91v.73h-.91a5.2 5.2 0 0 1 1.45-3.46l.64.64-.45.45 1.54.26-.28-1.53-.45.45-.64-.64-1.36-1.27a7.29 7.29 0 1 0 8.09-1.27"/><circle cx="7.31" cy="12.7" r="2.5" fill="#900"/></g></svg>